<svg xmlns="http://www.w3.org/2000/svg" viewBox="0 0 1285.79104 825.33884"><rect width="1285.79104" height="825.33884" fill="#f7f7f9"/><path d="M642.89552,264.26392A148.4055,148.4055,0,1,0,791.301,412.66942,148.40549,148.40549,0,0,0,642.89552,264.26392ZM712.841,477.84861c-17.38087,14.56972-39.61865,23.26033-65.94593,23.26033-53.93257,0-88.695-36.29589-88.695-87.6721,0-52.6549,36.29623-89.2066,88.695-89.2066,17.28379,0,33.07362,4.48224,45.22425,13.446a4.97335,4.97335,0,0,0,6.47963-.49833l3.43244-3.45049a4.97921,4.97921,0,0,1,8.5094,3.51146V370.117a4.97933,4.97933,0,0,1-4.9792,4.9792h-5.68395a4.98089,4.98089,0,0,1-4.70874-3.43176c-7.08526-21.13076-21.44788-30.81973-41.1167-30.81973-33.73987,0-55.46638,31.43932-55.46638,71.825,0,44.21976,24.02706,69.52415,59.81168,69.52415,20.19269,0,37.06263-6.64517,54.4435-21.4707Z" fill="#e3e3e6"/></svg>