<svg xmlns="http://www.w3.org/2000/svg" viewBox="0 0 500 500"><circle cx="250" cy="250" r="250" fill="#231e28"/><path d="M343.83667,122.82886l5.78188-5.8128a8.3878,8.3878,0,0,1,14.33467,5.91524v55.38575a8.3878,8.3878,0,0,1-8.3878,8.3878h-9.57477a8.39013,8.39013,0,0,1-7.93214-5.78109c-11.93568-35.59636-36.1309-51.91774-69.2643-51.91774-56.83733,0-93.43708,52.96191-93.43708,120.99451,0,74.49147,40.47517,117.11854,100.75692,117.11854,34.0163,0,62.4347-11.19474,91.71407-36.16926v28.84942c-29.27938,24.5435-66.74062,39.18319-111.09069,39.18319-90.85311,0-149.41291-61.14272-149.41291-147.68991,0-88.7012,61.14325-150.27493,149.41291-150.27493,29.1159,0,55.71522,7.55063,76.18375,22.65107A8.37844,8.37844,0,0,0,343.83667,122.82886Z" fill="#fdfdfd"/></svg>