<svg xmlns="http://www.w3.org/2000/svg" viewBox="0 0 343 97"><path d="M338.05948,18.47666l-4.19721,1.26422a3.60336,3.60336,0,1,0,2.07847,6.9005l4.19721-1.26423a3.60336,3.60336,0,1,0-2.07847-6.90049Z" fill="#ff5445"/><path d="M324.87494,6.70457,322.801,10.56639a3.60336,3.60336,0,1,0,6.34909,3.40968l2.07393-3.86182a3.60336,3.60336,0,1,0-6.34909-3.40968Z" fill="#ff5445"/><path d="M339.05823,36.12365l-3.86181-2.07393a3.60336,3.60336,0,1,0-3.40969,6.34909l3.86182,2.07393a3.60336,3.60336,0,1,0,3.40968-6.34909Z" fill="#ff5445"/><path d="M300.14614,40.12912V21.56145H283.64193a1.97653,1.97653,0,0,0-1.09636,3.62111l3.09125,2.06078V63.466l-3.09125,2.06078a1.97652,1.97652,0,0,0,1.09636,3.6211h19.14629a1.97652,1.97652,0,0,0,.95122-3.7091l-3.5933-1.97278V40.12912Z" fill="#231e28"/><path d="M157.67764,39.92632V55.55194c0,4.66727,2.13088,6.18925,4.46439,6.18925a6.7651,6.7651,0,0,0,3.95706-1.21753v4.97172a17.30235,17.30235,0,0,1-11.26229,3.95706c-4.8704,0-8.21882-1.72487-10.75521-5.7835-4.76884,4.36308-8.7259,5.98638-12.88609,5.98638A11.9636,11.9636,0,0,1,118.817,57.68257c0-7.30548,5.27617-11.567,15.32092-13.19029l9.13191-1.522v-3.044c0-6.79815-2.43508-10.3492-8.21857-10.3492-4.05863,0-8.32014,1.72487-12.58164,5.78325l-1.42042-4.97172c5.479-6.595,12.683-9.53743,19.17666-9.53743C150.77817,20.85122,157.67764,26.33027,157.67764,39.92632ZM139.617,49.26111c-5.47905.9131-7.20392,3.24686-7.20392,6.39214a5.22033,5.22033,0,0,0,5.58062,5.58062,8.35306,8.35306,0,0,0,5.27616-2.43508V48.65222Z" fill="#231e28"/><path d="M56.02962,5.49487l1.36246-1.36974A1.97652,1.97652,0,0,1,60.76994,5.519V18.57025a1.97652,1.97652,0,0,1-1.97652,1.97653H56.53719A1.97707,1.97707,0,0,1,54.668,19.1845c-2.81255-8.388-8.514-12.234-16.32162-12.234-13.39329,0-22.01775,12.48008-22.01775,28.51146,0,17.55337,9.53767,27.59812,23.74262,27.59812,8.01569,0,14.71227-2.638,21.61174-8.523v6.79815a39.89785,39.89785,0,0,1-26.1777,9.23323c-21.40886,0-35.208-14.40783-35.208-34.802,0-20.90178,14.408-35.41117,35.208-35.41117,6.861,0,13.12888,1.77924,17.95214,5.33755A1.97431,1.97431,0,0,0,56.02962,5.49487Z" fill="#231e28"/><path d="M98.91989,63.16162a19.62089,19.62089,0,0,0,12.98741-4.26151V64.582c-5.37748,3.95706-11.05941,5.58061-18.26357,5.58061-15.62537,0-26.279-9.53768-26.279-24.75728,0-14.30651,10.24789-24.5544,24.14839-24.5544,12.48008,0,20.90153,11.47047,20.90153,26.893H82.48275C82.68563,59.108,88.97646,63.16162,98.91989,63.16162ZM82.7872,42.062H97.80392c-.10156-8.92878-2.63821-16.54351-6.59527-16.54351C86.94714,25.51849,83.70029,33.539,82.7872,42.062Z" fill="#231e28"/><path d="M223.56041,44.898c0,15.92982-8.929,25.56906-21.91644,25.56906a24.09865,24.09865,0,0,1-13.69762-4.26151V90.96287l3.884,1.93655a1.97652,1.97652,0,0,1-.88194,3.74537H171.46729a1.97652,1.97652,0,0,1-1.10259-3.61693l3.07226-2.065V27.24336l-3.07226-2.065a1.97653,1.97653,0,0,1,1.10259-3.61694h16.47906v5.479a23.23438,23.23438,0,0,1,15.72693-6.39239C215.54472,20.64809,223.56041,29.47556,223.56041,44.898Zm-35.61406-11.6683V59.71188a14.40534,14.40534,0,0,0,9.13191,3.24686c6.595,0,11.36386-5.88506,11.36386-16.84316,0-12.17563-5.07328-17.35023-11.161-17.35023C194.03429,28.76535,190.78744,30.28733,187.94635,33.22974Z" fill="#231e28"/><path d="M262.23936,63.16162a19.62091,19.62091,0,0,0,12.98741-4.26151V64.582c-5.37748,3.95706-11.05941,5.58061-18.26358,5.58061-15.62536,0-26.279-9.53768-26.279-24.75728,0-14.30651,10.24788-24.5544,24.14838-24.5544,12.48008,0,20.90154,11.47047,20.90154,26.893H245.80222C246.0051,59.108,252.29592,63.16162,262.23936,63.16162ZM246.10666,42.062h15.01673c-.10157-8.92878-2.63821-16.54351-6.59527-16.54351C250.26661,25.51849,247.01976,33.539,246.10666,42.062Z" fill="#231e28"/><path d="M307.13226,35.36683l-2.10507-6.98878a.94852.94852,0,0,0-1.4855-.47538,3.68239,3.68239,0,0,0-1.29877,3.99466l.6245,2.07335a3.68257,3.68257,0,0,0,3.289,2.6129A.94853.94853,0,0,0,307.13226,35.36683Z" fill="#231e28"/><path d="M319.92818,37.26232a9.15485,9.15485,0,1,0-11.5486-10.881l-1.84631.55613a.94626.94626,0,0,0-.63315,1.179l2.10432,6.98633a.94628.94628,0,0,0,1.179.63315l1.84631-.55612A9.15072,9.15072,0,0,0,319.92818,37.26232Z" fill="#231e28"/></svg>