<svg xmlns="http://www.w3.org/2000/svg" viewBox="0 0 212.73975 212.73975">
  <circle cx="106.36987" cy="106.36987" r="106.36987" fill="#231e28"/>
  <path
    d="M146.29545,52.26116l2.46008-2.47322a3.56883,3.56883,0,0,1,6.0991,2.51681v23.5655a3.56884,3.56884,0,0,1-3.56883,3.56884h-4.07387a3.56981,3.56981,0,0,1-3.375-2.45974c-5.07839-15.14552-15.373-22.08993-29.47055-22.08993-24.18311,0-39.75555,22.5342-39.75555,51.48068,0,31.69459,17.22135,49.83154,42.87,49.83154,14.47324,0,26.56468-4.76314,39.02246-15.38928v12.27483c-12.45778,10.44276-28.39677,16.67165-47.26681,16.67165-38.65614,0-63.57213-26.015-63.57213-62.839,0-37.74054,26.01519-63.9389,63.57213-63.9389,12.38822,0,23.70568,3.21264,32.41462,9.63757A3.56486,3.56486,0,0,0,146.29545,52.26116Z"
    fill="#fdfdfd"/>
</svg>
