<svg xmlns="http://www.w3.org/2000/svg" viewBox="0 0 20 20"><path d="M19,9H3.35547L8.63818,3.52734A.9997.9997,0,0,0,7.19971,2.13867L.28516,9.30029a1.02325,1.02325,0,0,0-.10889.13282l-.001.00146a.98809.98809,0,0,0-.12744.25977v.00048l-.00049.001A.9975.9975,0,0,0,0,9.999v.002a.9975.9975,0,0,0,.04736.30322l.00049.001v.00048a.98809.98809,0,0,0,.12744.25977l.001.00146a1.02325,1.02325,0,0,0,.10889.13282l6.91455,7.16162a.9997.9997,0,1,0,1.43847-1.38867L3.35547,11H19a1,1,0,0,0,0-2Z" fill="#231e28"/></svg>