<svg xmlns="http://www.w3.org/2000/svg" viewBox="0 0 20 20"><path d="M7.14746,0a1,1,0,0,0-1,1L6.1001,7.273l-1.02637.00378V1a1,1,0,0,0-2,0V7.28412L2,7.28809V1A1,1,0,0,0,0,1V7.28809A2.01928,2.01928,0,0,0,2.04736,9.273H3.07373V19a1,1,0,0,0,2,0V9.273H6.1001A2.01928,2.01928,0,0,0,8.14746,7.28809V1A1,1,0,0,0,7.14746,0Z" fill="#231e28"/><path d="M15.92627,0a4.38735,4.38735,0,0,0-4.07373,4.63623,4.56035,4.56035,0,0,0,3.07373,4.47858V19a1,1,0,1,0,2,0V9.11481A4.56036,4.56036,0,0,0,20,4.63623,4.38735,4.38735,0,0,0,15.92627,0Z" fill="#231e28"/></svg>