<svg xmlns="http://www.w3.org/2000/svg" viewBox="0 0 20 20"><path d="M10.001,0a10,10,0,1,0,10,10A10.01177,10.01177,0,0,0,10.001,0ZM5.81836,5.64352a1.7002,1.7002,0,1,1-1.7002,1.7002A1.70211,1.70211,0,0,1,5.81836,5.64352ZM15.21,14.76071a.49951.49951,0,0,1-.69824-.11035,5.57629,5.57629,0,0,0-9.02149,0,.49986.49986,0,1,1-.80859-.58789,6.5756,6.5756,0,0,1,10.63867,0A.49968.49968,0,0,1,15.21,14.76071Zm-1.02344-5.7168a1.7002,1.7002,0,1,1,1.7002-1.70019A1.7019,1.7019,0,0,1,14.18652,9.04391Z" fill="#231e28"/></svg>