<svg xmlns="http://www.w3.org/2000/svg" viewBox="0 0 20 20"><polygon points="6.106 8.018 16.671 8.018 15.044 19.5 7.715 19.5 6.106 8.018" fill="#ff5445" opacity="0.6"/><polygon points="10.88 19.5 7.215 19.5 5.067 4.337 10.88 4.337 16.692 4.337 14.544 19.5 10.88 19.5" fill="none" stroke="#231e28" stroke-linecap="round" stroke-linejoin="round"/><path d="M8.90464,4.33724A3.83721,3.83721,0,1,0,5.0674,8.17441a3.80008,3.80008,0,0,0,.53594-.054L5.0674,4.33724Z" fill="none" stroke="#231e28" stroke-linecap="round" stroke-linejoin="round"/><polyline points="18.77 0.938 14.077 0.938 9.368 15.807" fill="none" stroke="#231e28" stroke-linecap="round" stroke-linejoin="round"/><circle cx="5.06743" cy="2.16842" r="0.28159" fill="#231e28"/><circle cx="6.46151" cy="2.67584" r="0.28159" fill="#231e28"/><circle cx="7.20327" cy="3.96063" r="0.28159" fill="#231e28"/><circle cx="3.67335" cy="2.67581" r="0.28159" fill="#231e28"/><circle cx="2.93156" cy="3.96059" r="0.28159" fill="#231e28"/><circle cx="3.18916" cy="5.4216" r="0.28159" fill="#231e28"/><circle cx="4.32562" cy="6.37522" r="0.28159" fill="#231e28"/><circle cx="5.06743" cy="4.33721" r="0.33343" fill="none"/></svg>