<svg xmlns="http://www.w3.org/2000/svg" viewBox="0 0 20 20"><path d="M18.95508,3.42041a4.89514,4.89514,0,0,0-4.22266-2.2876,7.1258,7.1258,0,0,0-4.67676,2.00928C8.1748,1.51025,6.335.86816,4.627,1.228A5.11823,5.11823,0,0,0,.791,3.96533c-1.77344,3.16016-.585,6.77783,3.54492,10.76514a41.8329,41.8329,0,0,0,3.77832,3.1626l.13867.10644a3.24874,3.24874,0,0,0,1.83594.86768,3.24857,3.24857,0,0,0,1.83691-.86768l.12305-.09424c2.82226-2.02881,5.90625-4.564,7.38086-7.97412A7.1103,7.1103,0,0,0,18.95508,3.42041Z" fill="#231e28"/></svg>