<svg xmlns="http://www.w3.org/2000/svg" viewBox="0 0 20 20"><path d="M10,5.25424C14.66439,5.25424,18,10,18,10s-3.33559,4.74576-8,4.74576S2,10,2,10s3.33559-4.74576,8-4.74576m0-2c-5.63846,0-9.47568,5.36722-9.63626,5.5957a2,2,0,0,0,0,2.30012c.16058.22848,3.9978,5.5957,9.63626,5.5957s9.47568-5.36722,9.63626-5.5957a2,2,0,0,0,0-2.30012c-.16058-.22848-3.9978-5.5957-9.63626-5.5957Z" fill="#231e28"/><path d="M10,8.9181A1.0819,1.0819,0,1,1,8.9181,10,1.08313,1.08313,0,0,1,10,8.9181m0-2A3.0819,3.0819,0,1,0,13.0819,10,3.08191,3.08191,0,0,0,10,6.9181Z" fill="#231e28"/></svg>