<svg xmlns="http://www.w3.org/2000/svg" viewBox="0 0 20 20"><path d="M17.40567,2A.59431.59431,0,0,1,18,2.59434v9.51982a.5943.5943,0,0,1-.59433.59429H10.09048L4.8811,18V12.70845H2.59433A.5943.5943,0,0,1,2,12.11416V2.59434A.59431.59431,0,0,1,2.59433,2H17.40567m0-2H2.59433A2.59727,2.59727,0,0,0,0,2.59434v9.51982a2.59724,2.59724,0,0,0,2.59433,2.59429H2.8811V18a2,2,0,0,0,3.42524,1.4031l4.62175-4.69465h6.47758A2.59724,2.59724,0,0,0,20,12.11416V2.59434A2.59727,2.59727,0,0,0,17.40567,0Z" fill="#231e28"/><circle cx="10" cy="7.35645" r="1.5" fill="#231e28"/><circle cx="15" cy="7.35645" r="1.5" fill="#231e28"/><circle cx="5" cy="7.35645" r="1.5" fill="#231e28"/></svg>