<svg xmlns="http://www.w3.org/2000/svg" viewBox="0 0 20 20"><path d="M19.95215,9.69482V9.69434a.98809.98809,0,0,0-.12744-.25977l-.001-.00146a1.02325,1.02325,0,0,0-.10889-.13282L12.80029,2.13867a.9997.9997,0,1,0-1.43847,1.38867L16.64453,9H1a1,1,0,0,0,0,2H16.64453l-5.28271,5.47266a.9997.9997,0,1,0,1.43847,1.38867l6.91455-7.16162a1.02325,1.02325,0,0,0,.10889-.13282l.001-.00146a.98809.98809,0,0,0,.12744-.25977v-.00048l.00049-.001A.9975.9975,0,0,0,20,10.001V9.999a.9975.9975,0,0,0-.04736-.30322Z" fill="#231e28"/></svg>