<svg xmlns="http://www.w3.org/2000/svg" viewBox="0 0 20 20"><path d="M11.06667,2a.26667.26667,0,0,1,.26666.26667v1.7472a6.09525,6.09525,0,0,1,1.95654.81066L14.5256,3.5888a.26669.26669,0,0,1,.37707,0L16.4112,5.0976a.26667.26667,0,0,1,0,.37707L15.17547,6.7104a6.09535,6.09535,0,0,1,.81093,1.95627h1.74693A.26667.26667,0,0,1,18,8.93333v2.13334a.26667.26667,0,0,1-.26667.26666H15.9864a6.09479,6.09479,0,0,1-.8112,1.95654l1.23573,1.23573a.26666.26666,0,0,1,0,.37707L14.9024,16.4112a.26669.26669,0,0,1-.37707,0L13.2896,15.17547a6.096,6.096,0,0,1-1.95627.81093v1.74693A.26667.26667,0,0,1,11.06667,18H8.93333a.26667.26667,0,0,1-.26666-.26667V15.9864a6.0961,6.0961,0,0,1-1.95654-.81093L5.4744,16.4112a.26669.26669,0,0,1-.37707,0L3.5888,14.90267a.26667.26667,0,0,1,0-.37707l1.236-1.236a6.09471,6.09471,0,0,1-.81093-1.95627H2.26667A.26667.26667,0,0,1,2,11.06667V8.93333a.26667.26667,0,0,1,.26667-.26666h1.7472a6.09525,6.09525,0,0,1,.81066-1.95654L3.5888,5.4744a.26667.26667,0,0,1,0-.37707L5.09733,3.5888a.26669.26669,0,0,1,.37707,0l1.236,1.236a6.09512,6.09512,0,0,1,1.95627-.81093V2.26667A.26667.26667,0,0,1,8.93333,2h2.13334m0-2H8.93333A2.27,2.27,0,0,0,6.68319,1.99226a2.26734,2.26734,0,0,0-2.9998.18205L2.17459,3.68312a2.27037,2.27037,0,0,0-.18214,3A2.26991,2.26991,0,0,0,0,8.93333v2.13334a2.27,2.27,0,0,0,1.99249,2.25017,2.27027,2.27027,0,0,0,.18182,2.99977l1.50881,1.5088a2.2674,2.2674,0,0,0,3.00007.18236A2.26994,2.26994,0,0,0,8.93333,20h2.13334a2.27,2.27,0,0,0,2.25012-1.99208,2.26734,2.26734,0,0,0,2.99969-.18237l1.50866-1.50867a2.27017,2.27017,0,0,0,.18217-3A2.26994,2.26994,0,0,0,20,11.06667V8.93333a2.27,2.27,0,0,0-1.99231-2.25015,2.2702,2.2702,0,0,0-.18207-2.99959L16.317,2.17471a2.26737,2.26737,0,0,0-3.0002-.18247A2.27,2.27,0,0,0,11.06667,0Z" fill="#231e28"/><circle cx="10" cy="10" r="3.0819" fill="none" stroke="#231e28" stroke-linecap="round" stroke-linejoin="round" stroke-width="2"/></svg>