<svg xmlns="http://www.w3.org/2000/svg" viewBox="0 0 20 20"><path d="M19.3488,7.33954,14.4631,6.5054a.782.782,0,0,1-.54331-.37584L10.67492.58569a.782.782,0,0,0-1.34984,0L6.08021,6.12956a.782.782,0,0,1-.54331.37584L.6512,7.33954a.782.782,0,0,0-.461,1.28112l3.70605,4.30451a.78205.78205,0,0,1,.18354.6057l-.66307,5.39147a.782.782,0,0,0,1.1328.79144l5.0939-2.61a.782.782,0,0,1,.71322,0l5.09393,2.61a.782.782,0,0,0,1.1328-.79145l-.6631-5.39146a.78209.78209,0,0,1,.18354-.60571l3.70605-4.3045A.782.782,0,0,0,19.3488,7.33954Z" fill="#231e28"/></svg>