<svg xmlns="http://www.w3.org/2000/svg" viewBox="0 0 20 20"><path d="M18.414,7.6056l-4.39719-.75073a.70382.70382,0,0,1-.489-.33825L10.6074,1.5271a.7038.7038,0,0,0-1.2148,0L6.4722,6.51662a.70382.70382,0,0,1-.489.33825L1.58605,7.6056a.7038.7038,0,0,0-.41491,1.153l3.33548,3.87409a.70381.70381,0,0,1,.16518.54511L4.075,18.03013a.7038.7038,0,0,0,1.01948.71227l4.58455-2.34906a.70379.70379,0,0,1,.64188,0l4.58458,2.34906a.70379.70379,0,0,0,1.01947-.71227l-.59679-4.85237a.70381.70381,0,0,1,.16518-.54511l3.33548-3.87409A.7038.7038,0,0,0,18.414,7.6056Z" fill="none" stroke="#231e28" stroke-linecap="round" stroke-linejoin="round" stroke-width="2"/></svg>