<svg xmlns="http://www.w3.org/2000/svg" viewBox="0 0 844 637"><path d="M630.03769,1227.60432H213.9621a75.1169,75.1169,0,0,1-75.03114-75.028V121.422A75.11535,75.11535,0,0,1,213.9621,46.39568H630.03769A75.11237,75.11237,0,0,1,705.069,121.422V1152.57635a75.11392,75.11392,0,0,1-75.03135,75.028Z" fill="#1a1a1a"/><path d="M632.23941,66.03649H211.76056a52.94325,52.94325,0,0,0-52.7881,52.7881V1155.17541a52.93967,52.93967,0,0,0,52.7881,52.78134H632.23941a52.94384,52.94384,0,0,0,52.79283-52.78134V118.82459A52.94742,52.94742,0,0,0,632.23941,66.03649Z" fill="#1a1a1a"/><path d="M632.23941,66.03649H576.64112a7.35981,7.35981,0,0,0-6.96585,5.06371v7.40355a29.4129,29.4129,0,0,1-29.32781,29.32545H303.7759a29.41718,29.41718,0,0,1-29.33267-29.32545V73.361a7.34837,7.34837,0,0,0-7.32692-7.32449H211.76056a52.94325,52.94325,0,0,0-52.7881,52.7881V1155.17541a52.93967,52.93967,0,0,0,52.7881,52.78134H632.23941a52.94384,52.94384,0,0,0,52.79283-52.78134V118.82459A52.94742,52.94742,0,0,0,632.23941,66.03649Z" fill="#333"/><path d="M477.00185,86.21921a9.14019,9.14019,0,1,1-9.13767-9.13531A9.13166,9.13166,0,0,1,477.00185,86.21921Z" fill="#333"/><path d="M435.50855,90.85972h-63.781a4.72685,4.72685,0,0,1-4.72968-4.72461V85.388a4.73013,4.73013,0,0,1,4.72968-4.72478h63.781a4.73234,4.73234,0,0,1,4.72478,4.72478v.74708a4.729,4.729,0,0,1-4.72478,4.72461Z" fill="#333"/></svg>