<svg xmlns="http://www.w3.org/2000/svg" viewBox="0 0 20 20"><polygon points="12.994 0.5 10 0.5 7.006 0.5 4.496 8.302 10 11.386 15.504 8.302 12.994 0.5" fill="none" stroke="#231e28" stroke-linecap="round" stroke-linejoin="round" opacity="0.6"/><circle cx="10" cy="16.3686" r="3.1314" fill="none" stroke="#231e28" stroke-linecap="round" stroke-linejoin="round" opacity="0.6"/><polygon points="12.192 1.601 10 1.601 7.808 1.601 14.18 7.782 12.192 1.601" fill="#ff5445" opacity="0.6"/><polygon points="7.808 1.601 5.82 7.782 10 10.123 10.001 10.123 14.18 7.782 7.808 1.601" fill="#ff5445"/><path d="M11.43551,14.9333A2.03018,2.03018,0,1,0,8.5644,17.80441l0,0,2.87111-2.87111Z" fill="#ff5445" opacity="0.6"/><path d="M11.43594,14.93364l-.00039-.0003L8.56444,17.80445l.0003.00039a2.03025,2.03025,0,0,0,2.8712-2.8712Z" fill="#ff5445"/></svg>