<svg xmlns="http://www.w3.org/2000/svg" viewBox="0 0 20 20"><path d="M19.18333,8.41667H17.10885a7.23816,7.23816,0,0,0-.963-2.32307L17.6133,4.62617a.31667.31667,0,0,0,0-.44777L15.82192,2.3867a.31667.31667,0,0,0-.44777,0L13.90672,3.85413a7.23818,7.23818,0,0,0-2.32339-.96266V.81667A.31666.31666,0,0,0,11.26667.5H8.73333a.31666.31666,0,0,0-.31666.31667v2.0748a7.23771,7.23771,0,0,0-2.32307.963L4.62585,2.3867a.31667.31667,0,0,0-.44777,0L2.3867,4.17808a.31667.31667,0,0,0,0,.44777L3.85413,6.09328a7.23818,7.23818,0,0,0-.96266,2.32339H.81667A.31666.31666,0,0,0,.5,8.73333v2.53334a.31666.31666,0,0,0,.31667.31666h2.0748a7.23771,7.23771,0,0,0,.963,2.32307L2.3867,15.37415a.31667.31667,0,0,0,0,.44777L4.17808,17.6133a.31667.31667,0,0,0,.44777,0l1.46743-1.46743a7.239,7.239,0,0,0,2.32339.963v2.07448A.31666.31666,0,0,0,8.73333,19.5h2.53334a.31666.31666,0,0,0,.31666-.31667V17.10885a7.239,7.239,0,0,0,2.32307-.963l1.46743,1.46743a.31667.31667,0,0,0,.44777,0L17.613,15.82192a.31665.31665,0,0,0,0-.44777l-1.46743-1.46743a7.23762,7.23762,0,0,0,.9633-2.32339h2.07448A.31666.31666,0,0,0,19.5,11.26667V8.73333A.31666.31666,0,0,0,19.18333,8.41667Z" fill="none" stroke="#231e28" stroke-linecap="round" stroke-linejoin="round"/><circle cx="10" cy="10" r="3.65975" fill="none" stroke="#231e28" stroke-linecap="round" stroke-linejoin="round"/></svg>